<?xml version="1.0" encoding="UTF-8" standalone="no"?>
<!-- Created with Inkscape (http://www.inkscape.org/) -->

<svg
   width="210mm"
   height="297mm"
   viewBox="0 0 210 297"
   version="1.1"
   id="svg1"
   inkscape:version="1.3.2 (091e20e, 2023-11-25)"
   sodipodi:docname="nf_core_riboseq_logo.svg"
   xmlns:inkscape="http://www.inkscape.org/namespaces/inkscape"
   xmlns:sodipodi="http://sodipodi.sourceforge.net/DTD/sodipodi-0.dtd"
   xmlns:xlink="http://www.w3.org/1999/xlink"
   xmlns="http://www.w3.org/2000/svg"
   xmlns:svg="http://www.w3.org/2000/svg">
  <sodipodi:namedview
     id="namedview1"
     pagecolor="#ffffff"
     bordercolor="#000000"
     borderopacity="0.25"
     inkscape:showpageshadow="2"
     inkscape:pageopacity="0.0"
     inkscape:pagecheckerboard="0"
     inkscape:deskcolor="#d1d1d1"
     inkscape:document-units="mm"
     inkscape:zoom="0.2102413"
     inkscape:cx="397.16269"
     inkscape:cy="561.25984"
     inkscape:window-width="1920"
     inkscape:window-height="1027"
     inkscape:window-x="3648"
     inkscape:window-y="25"
     inkscape:window-maximized="1"
     inkscape:current-layer="layer1" />
  <defs
     id="defs1">
    <linearGradient
       inkscape:collect="always"
       xlink:href="#linearGradient15697"
       id="linearGradient12"
       gradientUnits="userSpaceOnUse"
       gradientTransform="matrix(0.04574445,-0.0346747,0.0346747,0.04574445,-790.06888,-394.14297)"
       x1="-6640"
       y1="913.56567"
       x2="-2480.2986"
       y2="913.56567" />
    <linearGradient
       inkscape:collect="always"
       id="linearGradient15697">
      <stop
         style="stop-color:#000000;stop-opacity:1;"
         offset="0"
         id="stop15693" />
      <stop
         style="stop-color:#25af64;stop-opacity:1;"
         offset="0.69753736"
         id="stop15695" />
    </linearGradient>
    <inkscape:path-effect
       effect="bspline"
       id="path-effect14265-1"
       is_visible="true"
       lpeversion="1"
       weight="33.333333"
       steps="2"
       helper_size="0"
       apply_no_weight="true"
       apply_with_weight="true"
       only_selected="false"
       uniform="false" />
    <inkscape:path-effect
       effect="bspline"
       id="path-effect14273-0"
       is_visible="true"
       lpeversion="1"
       weight="33.333333"
       steps="2"
       helper_size="0"
       apply_no_weight="true"
       apply_with_weight="true"
       only_selected="false"
       uniform="false" />
    <linearGradient
       inkscape:collect="always"
       xlink:href="#linearGradient15697"
       id="linearGradient1"
       gradientUnits="userSpaceOnUse"
       gradientTransform="matrix(0.04574445,-0.0346747,0.0346747,0.04574445,-790.06888,-394.14297)"
       x1="-6640"
       y1="913.56567"
       x2="-2480.2986"
       y2="913.56567" />
  </defs>
  <g
     inkscape:label="Layer 1"
     inkscape:groupmode="layer"
     id="layer1">
    <g
       id="g28"
       transform="translate(71.391411,4.5875601)">
      <g
         id="g26"
         transform="translate(-15.364431,-60.70824)">
        <g
           id="g4301"
           style="display:inline"
           transform="matrix(0.12718284,0,0,0.12718284,-30.894011,105.83642)">
          <path
             d="m 1209.0625,147.1 v 4.2525 c -0.088,0.0225 -0.1775,0.045 -0.265,0.0662 -0.7237,-0.595 -1.4537,-1.18375 -2.1712,-1.78625 -4.7825,-4.0125 -9.845,-7.615 -15.445,-10.415 -0.9688,-0.485 -1.91,-1.055 -2.995,-1.27625 -0.079,-0.1725 -0.25,-0.19875 -0.4025,-0.26125 -2.1125,-0.87125 -4.2775,-1.575 -6.505,-2.09 -4.8375,-1.12 -9.6925,-1.22625 -14.5625,-0.2475 -6.2575,1.25875 -11.8575,4.01625 -17.1038,7.55875 -5.2062,3.51625 -9.8988,7.645 -14.3025,12.11125 -0.795,0.80625 -0.8087,0.80375 -1.2987,-0.215 -2.3413,-4.875 -4.9163,-9.61375 -8.14,-13.9725 -2.4625,-3.32875 -5.2138,-6.37125 -8.7813,-8.56625 -3.5975,-2.21375 -7.4512,-3.0175 -11.6075,-2.0125 -5.1012,1.2325 -9.1987,4.20625 -13.0637,7.575 -2.3575,1.825 -4.4713,3.92375 -6.6588,5.9375 -1.9625,1.80625 -3.9325,3.6025 -5.97,5.32625 -0.3725,0.31625 -0.57,0.31125 -0.9087,-0.0438 -1.9775,-2.075 -4.1013,-3.97125 -6.65,-5.3425 -3.6638,-1.9725 -7.4613,-2.21375 -11.3863,-0.93625 -3.29,1.07 -6.2012,2.87125 -9.115,4.675 -1.1487,0.71125 -2.22,1.55 -3.4587,2.11375 v -0.28625 c 0.1699,-0.205 0.1087,-0.455 0.1175,-0.685 0.1862,-5.26 0.6337,-10.495 1.4499,-15.69875 1.125,-7.1725 2.9313,-14.14375 6.1276,-20.7 2.3924,-4.90375 5.5187,-9.28 9.5775,-12.94875 5.33,-4.82 11.6225,-7.86625 18.4725,-9.835 7.4262,-2.13375 15.0512,-3.01375 22.7375,-3.43625 3.0412,-0.1675 6.0875,-0.24 9.1325,-0.355 1.4837,0.61625 3.0525,0.9625 4.5725,1.4625 2.2275,0.6825 4.4562,1.3625 6.6837,2.04375 1.1337,0.41625 2.2663,0.8375 3.4037,1.2475 4.4026,1.59 8.605,3.5625 12.3301,6.45125 0.965,0.74875 1.8912,1.545 2.8374,2.3525 -0.1887,-0.70125 -0.4474,-1.35625 -0.6949,-2.01375 -1.6288,-4.32125 -4.115,-7.95875 -8.1575,-10.39875 -1.6713,-1.00875 -3.4475,-1.8125 -5.145,-2.765 0.165,-0.02125 0.3312,-0.03875 0.4962,-0.06625 5.3588,-0.89125 10.7588,-1.42125 16.1825,-1.635 4.6613,-0.185 9.33,-0.11625 13.9825,0.3675 5.4375,0.56625 10.7563,1.6375 15.895,3.5375 7.6025,2.81125 14.0762,7.21 19.0975,13.62125 4.3813,5.5925 7.1738,11.9575 8.9638,18.79 1.7775,6.77875 2.5337,13.695 2.7275,20.68375 0,2.605 0,5.21 0,7.815"
             id="path66-4"
             inkscape:connector-curvature="0"
             style="fill:#22ae63" />
          <path
             d="m 1209.0625,139.2875 c 0.044,0 0.085,-0.009 0.1275,-0.0238 v 7.86125 c -0.043,-0.01 -0.084,-0.0175 -0.1262,-0.0225 0,-2.605 0,-5.21 0,-7.815"
             id="path70-8"
             inkscape:connector-curvature="0"
             style="fill:#ecdc86" />
          <path
             d="m 1165.8875,27.0875 c 0,0.04625 0,0.09125 0.01,0.13625 -1.765,0 -3.5313,0.0013 -5.2975,0.0013 0.01,-0.03 0.024,-0.06 0.029,-0.09 0,-0.015 -0.016,-0.03125 -0.024,-0.0475 h 5.2862 z"
             id="path74-6"
             inkscape:connector-curvature="0"
             style="fill:#a0918f" />
          <path
             d="m 1169.3375,249.81875 c 2.9813,-1.1975 5.8213,-2.6675 8.585,-4.30625 3.295,-1.95375 6.4338,-4.1375 9.4888,-6.435 2.5775,-1.9375 5.1,-3.95125 7.5512,-6.05125 1.4163,-1.2125 2.8738,-2.3775 4.3,-3.5775 0.2875,-0.24125 0.2925,-0.13625 0.3688,0.1575 0.5175,1.9425 0.8762,3.91875 1.2675,5.88875 0.5337,2.68375 0.9612,5.3875 1.2587,8.10625 0.3438,3.13875 0.4688,6.295 0.2813,9.44625 -0.2325,3.93625 -0.94,7.79625 -2.3075,11.50875 -0.825,2.2375 -1.9063,4.35375 -3.1863,6.365 -1.6437,2.5825 -3.6,4.9125 -5.8637,6.96375 -2.7563,2.49625 -5.8,4.5875 -9.0613,6.38625 -4.4262,2.44125 -9.1137,4.23 -13.925,5.7 -4.5925,1.4025 -9.2837,2.4175 -14.0175,3.21875 -1.2837,0.2175 -2.57,0.45 -3.8787,0.41625 -2.7638,-0.0687 -5.415,-0.69 -7.9875,-1.68875 -3.91,-1.51625 -7.3875,-3.88625 -11.1788,-5.64 -2.0775,-0.9625 -4.2212,-1.6675 -6.5287,-1.8225 -2.9675,-0.2 -5.4838,0.815 -7.6063,2.8225 -1.5925,1.50375 -3.0975,3.09875 -4.6662,4.62875 -2.6363,2.57375 -5.7238,4.3175 -9.39,4.92625 -2.4338,0.40375 -4.87,0.27625 -7.3025,-0.07 -3.38,-0.4825 -6.6913,-1.25875 -9.9388,-2.30375 -4.7425,-1.52375 -9.1562,-3.71375 -13.1112,-6.74625 -3.7475,-2.8725 -6.7925,-6.3825 -9.2025,-10.46125 -2.4238,-4.1025 -3.9375,-8.53875 -4.9613,-13.15125 -0.4487,-2.0225 -0.7212,-4.0875 -0.9325,-6.15875 -0.2962,-2.9025 -0.4737,-5.8075 -0.3987,-8.72125 0.1037,-4.09 0.4175,-8.1675 1.05,-12.3375 0.485,0.435 0.9225,0.81875 1.3537,1.2125 2.6363,2.4125 5.5,4.5325 8.5763,6.33625 3.4762,2.0375 7.165,3.6375 11.065,4.6775 2.6387,0.70375 5.3337,1.13625 8.065,1.36 2.255,0.18375 4.515,0.22 6.76,0.0813 2.6437,-0.16125 5.3012,-0.34625 7.88,-1.06125 0.3287,-0.04 0.6625,-0.0575 0.9875,-0.125 2.3675,-0.49375 4.7162,-1.055 7.0425,-1.73375 2.6775,-0.78125 5.3212,-1.6575 7.9325,-2.625 2.5412,-0.9425 5.0512,-1.97125 7.5375,-3.0525 0.7337,-0.32 1.1775,-0.18125 1.755,0.265 4.1487,3.21125 8.5837,5.94 13.4812,7.8725 5.3925,2.1275 10.9513,3.15375 16.7675,2.6725 4.1938,-0.345 8.2013,-1.38625 12.09,-2.94375"
             id="path78"
             inkscape:connector-curvature="0"
             style="fill:#22ae63" />
          <path
             d="m 1169.3375,249.81875 c -3.8887,1.5575 -7.8962,2.59875 -12.09,2.94375 -5.8162,0.48125 -11.375,-0.545 -16.7675,-2.6725 -4.8975,-1.9325 -9.3325,-4.66125 -13.4812,-7.8725 -0.5775,-0.44625 -1.0213,-0.585 -1.755,-0.265 -2.4863,1.08125 -4.9963,2.11 -7.5375,3.0525 -2.6113,0.9675 -5.255,1.84375 -7.9325,2.625 -2.3263,0.67875 -4.675,1.24 -7.0425,1.73375 -0.325,0.0675 -0.6588,0.085 -0.9875,0.125 0.8162,-0.94875 1.6325,-1.89875 2.4525,-2.8475 3.3162,-3.84 5.6512,-8.205 7.025,-13.08875 1.8775,-6.67375 3.8412,-13.325 5.4012,-20.08375 1.1463,-4.9725 2.1563,-9.97125 2.8363,-15.0325 0.4862,-3.6275 0.7962,-7.26625 1.0087,-10.92 0.1963,-3.3575 0.1438,-6.71 -0.065,-10.055 -0.6325,-10.1175 -2.855,-19.8925 -6.9537,-29.1625 -2.4563,-5.555 -6.6863,-9.36125 -12.6875,-10.925 -2.5938,-0.67625 -5.1825,-0.46375 -7.73,0.3325 -0.2013,0.0625 -0.3925,0.18375 -0.6188,0.12125 3.8663,-3.36875 7.9625,-6.3425 13.0638,-7.57625 4.1562,-1.005 8.01,-0.2 11.6075,2.01375 3.5687,2.19375 6.3187,5.23625 8.7825,8.56625 3.2237,4.3575 5.7975,9.0975 8.1387,13.97125 0.49,1.02 0.505,1.02125 1.2988,0.21625 4.405,-4.46625 9.0975,-8.595 14.3037,-12.11125 5.245,-3.5425 10.8463,-6.3 17.1025,-7.55875 4.87,-0.98 9.7263,-0.8725 14.5638,0.24625 2.2262,0.515 4.3925,1.21875 6.5037,2.09 0.1525,0.0637 0.325,0.0888 0.4025,0.2625 -6.2125,0.12125 -11.5875,2.49 -16.4825,6.14625 -2.3612,1.765 -4.4662,3.795 -6.0887,6.26125 -1.3488,2.0475 -2.43,4.25375 -3.485,6.465 -2.1538,4.515 -3.915,9.17625 -5.1713,14.02375 -1.0737,4.145 -1.7537,8.3525 -2.11,12.6225 -0.2762,3.30375 -0.335,6.61 -0.2062,9.91125 0.1587,4.055 0.5375,8.0975 1.06,12.1275 0.8737,6.75625 2.0675,13.45875 3.1562,20.18 0.605,3.72375 1.1213,7.46125 1.7163,11.185 0.8687,5.4175 3.8475,9.465 8.245,12.5775 0.175,0.1225 0.3487,0.2475 0.5237,0.37125"
             id="path82"
             inkscape:connector-curvature="0"
             style="fill:#ecdc86" />
          <path
             d="m 1160.5875,27.225 c 1.7663,0 3.5325,-0.0013 5.2975,-0.0013 4.2975,0.195 8.4975,0.91375 12.5738,2.31125 3.1475,1.07875 3.8525,3.1425 1.9537,5.87125 -1.3537,1.94875 -3.2262,3.355 -5.1675,4.65875 -2.5337,1.70125 -5.2462,3.0625 -8.1,4.13875 -2.99,1.1275 -5.8425,0.02625 -7.6512,-2.945 -0.5713,-0.93625 -1.01,-1.93625 -1.3113,-2.99 -0.09,-0.315 -0.2212,-0.45625 -0.5587,-0.51625 -6.645,-1.1775 -12.5075,0.3575 -17.4263,5.06625 -4.0037,3.835 -6.3775,8.64125 -8.0362,13.84125 -1.4963,4.69125 -2.2363,9.515 -2.4713,14.43125 -0.2087,4.37 0.085,8.70375 0.7613,13.01875 0.1325,0.74 0.3125,1.475 0.3887,2.22 0.094,0.91875 -0.1775,1.72 -0.9762,2.28625 -0.835,0.5925 -1.79,0.49125 -2.7288,0.50625 -2.2275,-0.68125 -4.455,-1.3625 -6.6825,-2.04375 -0.014,-0.52875 -0.028,-1.05625 -0.04,-1.58375 0.033,-2.30875 0.041,-4.6175 0.1688,-6.9225 0.505,-9.1325 1.8812,-18.08625 5.415,-26.59875 2.63,-6.335 6.3487,-11.89 11.68,-16.285 4.3812,-3.61125 9.3762,-5.985 14.8812,-7.31125 2.64,-0.635 5.3175,-1.02 8.03,-1.1525"
             id="path86"
             inkscape:connector-curvature="0"
             style="fill:#3f2b29" />
          <path
             d="m 1127.1375,89.1125 c 0.9388,-0.015 1.8938,0.08625 2.7288,-0.50625 0.7975,-0.56625 1.07,-1.3675 0.9762,-2.28625 -0.077,-0.74625 -0.2562,-1.48 -0.39,-2.22 0.4188,-0.03875 0.8388,-0.07625 1.2588,-0.11375 1.6987,0.95125 3.4737,1.755 5.145,2.76375 4.0425,2.44125 6.5287,6.0775 8.1575,10.39875 0.2475,0.65875 0.5062,1.31375 0.695,2.015 -0.945,-0.8075 -1.8725,-1.605 -2.8375,-2.35375 -3.725,-2.8875 -7.9275,-4.86 -12.33,-6.45 -1.1375,-0.41125 -2.27,-0.83125 -3.4038,-1.2475"
             id="path90"
             inkscape:connector-curvature="0"
             style="fill:#386e35" />
          <path
             d="m 1120.4125,85.4875 c 0.013,0.5275 0.026,1.05625 0.039,1.58375 -1.52,-0.5 -3.0887,-0.84625 -4.5725,-1.4625 1.5113,-0.04125 3.0225,-0.08125 4.5338,-0.12125"
             id="path94"
             inkscape:connector-curvature="0"
             style="fill:#386e35" />
        </g>
        <text
           style="font-weight:bold;font-size:33.365px;line-height:0%;font-family:'Maven Pro';display:inline;stroke-width:0.12983"
           id="text53"
           font-weight="bold"
           font-size="209.87px"
           y="140.50221"
           x="-38.510803"><tspan
             style="font-weight:bold;font-size:33.3645px;font-family:'Maven Pro';fill:#24af63;stroke-width:0.12983"
             id="tspan55"
             font-weight="bold"
             font-size="209.87px"
             y="140.50221"
             x="-38.510803"
             class="st0 st1 st2">nf-<tspan
   style="fill:#000000;stroke-width:0.12983"
   id="tspan57" /></tspan></text>
        <text
           style="font-weight:bold;font-size:33.365px;line-height:0%;font-family:'Maven Pro';display:inline;stroke-width:0.12983"
           id="text69"
           font-weight="bold"
           font-size="209.87px"
           y="140.50221"
           x="10.493434"><tspan
             style="font-weight:bold;font-size:33.3645px;font-family:'Maven Pro';fill:#24af63;stroke-width:0.12983"
             id="tspan71"
             font-weight="bold"
             font-size="209.87px"
             y="140.50221"
             x="10.493434"
             class="st0 st1 st2"><tspan
               style="fill:#000000;stroke-width:0.12983"
               id="tspan73">core/</tspan></tspan></text>
      </g>
      <g
         id="g27"
         transform="translate(-4.5195446,4.1221644)">
        <path
           style="font-variation-settings:normal;vector-effect:none;fill:url(#linearGradient1);fill-opacity:1;stroke:none;stroke-width:1.2475;stroke-linecap:butt;stroke-linejoin:miter;stroke-miterlimit:4;stroke-dasharray:none;stroke-dashoffset:0;stroke-opacity:1;-inkscape-stroke:none;stop-color:#000000"
           d="m -898.04823,-149.60367 c 26.42935,-2.43249 59.62636,-17.49044 68.2705,-35.80974 8.64413,-18.31929 -7.26822,-39.91047 -30.96745,-54.78651 -23.69924,-14.87604 -55.18634,-23.02887 -87.2105,-23.93025 -32.02416,-0.90138 -64.57962,5.45235 -85.74782,15.56419 -21.1682,10.11183 -30.9404,23.97743 -32.2196,41.39006 -1.2792,17.41263 5.9292,38.36282 18.3463,48.02262 12.4171,9.6598 30.0386,8.04043 44.8643,4.7562 14.82576,-3.28423 26.85827,-8.2322 42.7125,-5.6029 15.85422,2.6293 35.52241,12.82883 61.95177,10.39633 z"
           id="path14263"
           inkscape:path-effect="#path-effect14265-1"
           inkscape:original-d="m -904.81918,-136.97672 c 33.2052,-15.04864 66.4022,-30.10661 99.5912,-45.17393 -15.9048,-21.58265 -31.8172,-43.17379 -47.7379,-64.7747 -31.4803,-8.14381 -62.9674,-16.29664 -94.4633,-24.459 -32.5486,6.36333 -65.10402,12.71706 -97.66822,19.06157 -9.7646,13.8755 -19.5368,27.7411 -29.3172,41.59764 7.2167,20.96035 14.4251,41.91052 21.6254,62.85175 17.6304,-1.6101 35.2519,-3.22948 52.86572,-4.85823 12.0412,-4.93887 24.0737,-9.88687 36.0985,-14.84431 19.6771,10.20928 39.3453,20.4088 59.0058,30.59921 z"
           transform="matrix(0.159638,0,0,0.15858962,123.36575,125.94722)" />
        <path
           style="font-variation-settings:normal;vector-effect:none;fill:url(#linearGradient12);fill-opacity:1;stroke:none;stroke-width:1.2475;stroke-linecap:butt;stroke-linejoin:miter;stroke-miterlimit:4;stroke-dasharray:none;stroke-dashoffset:0;stroke-opacity:1;-inkscape-stroke:none;stop-color:#000000"
           d="m -843.1361,-142.64141 c -11.50145,-2.31009 -23.53432,2.63805 -38.25243,4.47217 -14.71811,1.83412 -32.12601,0.55219 -46.52549,-1.9655 -14.39948,-2.51769 -25.79108,-6.27363 -40.40732,-5.89353 -14.61625,0.38009 -32.45136,4.90076 -47.06286,5.28545 -14.6115,0.38469 -26.003,-3.37122 -36.3766,-1.21924 -10.3737,2.15197 -19.7185,10.21495 -17.6676,22.03892 2.0509,11.82398 15.4892,27.398772 51.5429,32.965926 36.05367,5.567154 94.72087,1.136325 128.51309,-2.209754 33.79222,-3.346078 42.70982,-5.606421 51.8387,-10.767588 9.12887,-5.161164 18.47377,-13.224154 17.66853,-22.031194 -0.80523,-8.80703 -11.76947,-18.36556 -23.27092,-20.67566 z"
           id="path14271"
           inkscape:path-effect="#path-effect14273-0"
           inkscape:original-d="m -842.60838,-149.89812 c -12.0247,4.95748 -24.0576,9.90556 -36.0984,14.84434 -17.4005,-1.27264 -34.8084,-2.55458 -52.2247,-3.84587 -11.384,-3.74676 -22.7756,-7.5027 -34.1755,-11.26805 -17.8279,4.53022 -35.66302,9.05091 -53.50672,13.56234 -11.384,-3.74674 -22.7755,-7.50268 -34.1755,-11.26803 -9.3372,8.07264 -18.6821,16.13561 -28.0352,24.1894 13.4469,15.58483 26.8851,31.159669 40.3157,46.725489 58.67762,-4.42167 117.34482,-8.8525 176.00522,-13.29276 8.926,-2.2511 17.8436,-4.51145 26.7534,-6.78118 9.3533,-8.053939 18.6982,-16.116929 28.0352,-24.189399 -10.9567,-9.5496 -21.9209,-19.10818 -32.8935,-28.67628 z"
           transform="matrix(0.159638,0,0,0.15858962,123.36575,125.94722)" />
      </g>
      <text
         style="font-weight:bold;font-size:33.365px;line-height:0%;font-family:'Maven Pro';display:inline;fill:#1a1a1a;stroke-width:0.12983"
         id="text26"
         font-weight="bold"
         font-size="209.87px"
         y="112.0218"
         x="-8.0233622"><tspan
           style="font-weight:bold;font-size:33.3645px;font-family:'Maven Pro';fill:#1a1a1a;stroke-width:0.12983"
           id="tspan26"
           font-weight="bold"
           font-size="209.87px"
           y="112.0218"
           x="-8.0233622"
           class="st0 st1 st2">riboseq<tspan
   style="fill:#1a1a1a;stroke-width:0.12983"
   id="tspan25" /></tspan></text>
    </g>
  </g>
</svg>
